<svg xmlns="http://www.w3.org/2000/svg" version="1.1" xmlns:xlink="http://www.w3.org/1999/xlink" xmlns:svgjs="http://svgjs.dev/svgjs" width="1000" height="1000"><g clip-path="url(#SvgjsClipPath1090)"><rect width="1000" height="1000" fill="#000000"></rect><g transform="matrix(0.8810572687224669,0,0,0.8810572687224669,144.05286343612335,100)"><svg xmlns="http://www.w3.org/2000/svg" version="1.1" xmlns:xlink="http://www.w3.org/1999/xlink" xmlns:svgjs="http://svgjs.dev/svgjs" width="808" height="908"><svg width="808" height="908" viewBox="0 0 808 908" fill="none" xmlns="http://www.w3.org/2000/svg">
<g filter="url(#filter0_d_8_435)">
<g filter="url(#filter1_d_8_435)">
<path d="M732.767 616.518L804 657.554V241.159L790.562 248.901C796.156 268.31 796.156 286.523 796.156 303.033C796.156 350.288 772.567 383.585 732.767 403.136V616.518Z" fill="#EAEAEA"></path>
<path d="M616.331 193.528L422.856 82.0714V0L784.776 208.494L770.453 216.746C748.413 191.478 715.944 175.507 679.737 175.507C656.465 175.507 634.738 182.105 616.331 193.528Z" fill="#EAEAEA"></path>
<path d="M714.661 649.826L785.893 690.862L422.856 900V817.929L714.661 649.826Z" fill="#EAEAEA"></path>
<path d="M384.893 82.2161L95.0892 249.166L23.8563 208.13L384.893 0.144736V82.2161Z" fill="#E6232E"></path>
<path d="M75.2329 281.466L4 240.43V658.283L75.2329 617.247V281.466Z" fill="#E6232E"></path>
<path d="M93.9719 650.191L22.7391 691.226L384.893 899.855V817.784L93.9719 650.191Z" fill="#E6232E"></path>
<path d="M791.15 249.139L803.5 242.024V656.689L733.267 616.229V403.447C773.054 383.801 796.656 350.384 796.656 303.033V303.01C796.656 286.617 796.656 268.475 791.15 249.139ZM616.322 192.946L423.356 81.7824V0.865064L783.775 208.494L770.559 216.108C748.433 190.915 715.947 175.007 679.737 175.007C656.477 175.007 634.751 181.572 616.322 192.946ZM423.356 818.218L714.661 650.403L784.892 690.862L423.356 899.135V818.218ZM384.393 81.9271L95.0892 248.589L24.858 208.13L384.393 1.0098V81.9271ZM74.7329 616.958L4.5 657.417V241.295L74.7329 281.755V616.958ZM384.393 898.99L23.7407 691.226L93.9719 650.768L384.393 818.073V898.99Z" stroke="#020202"></path>
</g>
<mask id="path-3-inside-1_8_435" fill="white">
<path fill-rule="evenodd" clip-rule="evenodd" d="M679.737 375.003C723.767 375.003 759.459 339.389 759.459 295.457C759.459 251.525 723.767 215.911 679.737 215.911C635.708 215.911 600.016 251.525 600.016 295.457C600.016 339.389 635.708 375.003 679.737 375.003ZM679.737 351.013C710.488 351.013 735.416 326.14 735.416 295.457C735.416 264.774 710.488 239.901 679.737 239.901C648.987 239.901 624.059 264.774 624.059 295.457C624.059 326.14 648.987 351.013 679.737 351.013Z"></path>
</mask>
<path fill-rule="evenodd" clip-rule="evenodd" d="M679.737 375.003C723.767 375.003 759.459 339.389 759.459 295.457C759.459 251.525 723.767 215.911 679.737 215.911C635.708 215.911 600.016 251.525 600.016 295.457C600.016 339.389 635.708 375.003 679.737 375.003ZM679.737 351.013C710.488 351.013 735.416 326.14 735.416 295.457C735.416 264.774 710.488 239.901 679.737 239.901C648.987 239.901 624.059 264.774 624.059 295.457C624.059 326.14 648.987 351.013 679.737 351.013Z" fill="#EAEAEA"></path>
<path d="M758.459 295.457C758.459 338.835 723.216 374.003 679.737 374.003V376.003C724.317 376.003 760.459 339.944 760.459 295.457H758.459ZM679.737 216.911C723.216 216.911 758.459 252.079 758.459 295.457H760.459C760.459 250.971 724.317 214.911 679.737 214.911V216.911ZM601.016 295.457C601.016 252.079 636.258 216.911 679.737 216.911V214.911C635.158 214.911 599.016 250.971 599.016 295.457H601.016ZM679.737 374.003C636.258 374.003 601.016 338.835 601.016 295.457H599.016C599.016 339.944 635.158 376.003 679.737 376.003V374.003ZM734.416 295.457C734.416 325.585 709.938 350.013 679.737 350.013V352.013C711.038 352.013 736.416 326.694 736.416 295.457H734.416ZM679.737 240.901C709.938 240.901 734.416 265.329 734.416 295.457H736.416C736.416 264.22 711.038 238.901 679.737 238.901V240.901ZM625.059 295.457C625.059 265.329 649.537 240.901 679.737 240.901V238.901C648.437 238.901 623.059 264.22 623.059 295.457H625.059ZM679.737 350.013C649.537 350.013 625.059 325.585 625.059 295.457H623.059C623.059 326.694 648.437 352.013 679.737 352.013V350.013Z" fill="#020202" mask="url(#path-3-inside-1_8_435)"></path>
<path d="M403.875 339.649L499.217 394.574V504.423L403.875 559.348L308.532 504.423V394.574L403.875 339.649Z" fill="#E6232E"></path>
<path d="M403.875 378.791L465.245 414.145V484.853L403.875 520.206L342.505 484.853V414.145L403.875 378.791Z" fill="#C11C26"></path>
<path d="M403.375 378.502L342.505 413.568L309.534 394.574L403.375 340.514V378.502ZM465.245 413.568L404.375 378.502V340.514L498.216 394.574L465.245 413.568ZM465.745 414.434L498.717 395.439V503.558L465.745 484.564V414.434ZM465.245 485.43L498.216 504.423L404.375 558.483V520.495L465.245 485.43ZM403.375 520.495V558.483L309.534 504.423L342.505 485.43L403.375 520.495ZM342.005 484.564L309.032 503.558V395.439L342.005 414.434V484.564ZM343.005 484.564V415.01L403.375 449.788V519.341L343.005 484.564ZM404.375 519.341V449.788L464.745 415.01V484.564L404.375 519.341ZM404.375 379.656L464.243 414.145L404.375 448.634V379.656ZM403.375 448.634L343.506 414.145L403.375 379.656V448.634Z" stroke="#020202"></path>
<path d="M679.737 260.103L710.107 277.78V313.134L679.737 330.811L649.367 313.134V277.78L679.737 260.103Z" fill="#E6232E"></path>
<path d="M679.737 272.7L699.286 284.079V306.835L679.737 318.213L660.188 306.835V284.079L679.737 272.7Z" fill="#C11C26"></path>
<path d="M128.457 291.321L207.105 244.269L247.148 267.337V313.482L168.5 360.534L128.457 337.466V291.321Z" fill="#E6232E" stroke="#020202"></path>
<path d="M404.103 127.526L579.812 228.749C566.997 247.822 559.522 270.769 559.522 295.457C559.522 300.309 559.811 305.093 560.372 309.794L403.977 219.699L253.816 306.204V263.26L211.151 238.682L404.103 127.526Z" fill="#EAEAEA"></path>
<path d="M124.216 342.642V611.237L404.103 772.474L683.99 611.237V415.334C682.579 415.383 681.161 415.408 679.738 415.408C650.765 415.408 624.186 405.181 603.429 388.148V564.399L403.977 679.299L204.525 564.399V345.948L167.24 367.427L124.216 342.642Z" fill="#A7A7A7"></path>
<path d="M403.728 219.266L254.316 305.339V263.26V262.971L254.065 262.827L212.153 238.682L404.103 128.103L579.1 228.915C566.413 247.98 559.022 270.858 559.022 295.457C559.022 299.989 559.273 304.463 559.762 308.866L404.227 219.266L403.977 219.122L403.728 219.266ZM603.679 564.832L603.929 564.688V564.399V389.2C624.651 405.904 651.024 415.908 679.738 415.908C680.993 415.908 682.244 415.889 683.49 415.851V610.948L404.103 771.897L124.716 610.948V343.507L166.991 367.861L167.24 368.004L167.49 367.861L204.025 346.813V564.399V564.688L204.276 564.832L403.728 679.732L403.977 679.876L404.227 679.732L603.679 564.832Z" stroke="#020202"></path>
</g>
<defs>
<filter id="filter0_d_8_435" x="0" y="0" width="808" height="908" filterUnits="userSpaceOnUse" color-interpolation-filters="sRGB">
<feFlood flood-opacity="0" result="BackgroundImageFix"></feFlood>
<feColorMatrix in="SourceAlpha" type="matrix" values="0 0 0 0 0 0 0 0 0 0 0 0 0 0 0 0 0 0 127 0" result="hardAlpha"></feColorMatrix>
<feOffset dy="4"></feOffset>
<feGaussianBlur stdDeviation="2"></feGaussianBlur>
<feComposite in2="hardAlpha" operator="out"></feComposite>
<feColorMatrix type="matrix" values="0 0 0 0 0 0 0 0 0 0 0 0 0 0 0 0 0 0 0.25 0"></feColorMatrix>
<feBlend mode="normal" in2="BackgroundImageFix" result="effect1_dropShadow_8_435"></feBlend>
<feBlend mode="normal" in="SourceGraphic" in2="effect1_dropShadow_8_435" result="shape"></feBlend>
</filter>
<filter id="filter1_d_8_435" x="0" y="0" width="808" height="908" filterUnits="userSpaceOnUse" color-interpolation-filters="sRGB">
<feFlood flood-opacity="0" result="BackgroundImageFix"></feFlood>
<feColorMatrix in="SourceAlpha" type="matrix" values="0 0 0 0 0 0 0 0 0 0 0 0 0 0 0 0 0 0 127 0" result="hardAlpha"></feColorMatrix>
<feOffset dy="4"></feOffset>
<feGaussianBlur stdDeviation="2"></feGaussianBlur>
<feComposite in2="hardAlpha" operator="out"></feComposite>
<feColorMatrix type="matrix" values="0 0 0 0 0 0 0 0 0 0 0 0 0 0 0 0 0 0 0.25 0"></feColorMatrix>
<feBlend mode="normal" in2="BackgroundImageFix" result="effect1_dropShadow_8_435"></feBlend>
<feBlend mode="normal" in="SourceGraphic" in2="effect1_dropShadow_8_435" result="shape"></feBlend>
</filter>
<clipPath id="SvgjsClipPath1090"><rect width="1000" height="1000" x="0" y="0" rx="350" ry="350"></rect></clipPath></defs>
</svg></svg></g></g></svg>